<svg width="195" height="197" viewBox="0 0 195 197" fill="none" xmlns="http://www.w3.org/2000/svg">
<g clip-path="url(#clip0_4_71)">
<path d="M88.0723 0.687668C87.9514 0.809021 87.0651 0.970825 86.1384 1.09219C85.1715 1.1731 83.7614 1.3349 82.9959 1.45625C82.2304 1.53716 81.2231 1.69896 80.78 1.73941C80.3368 1.77986 79.7324 1.98213 79.4504 2.14394C79.1684 2.34619 78.6849 2.38664 78.3626 2.26529C78.0403 2.14394 77.6777 2.22484 77.5165 2.46754C77.3957 2.71025 77.0331 2.79117 76.7107 2.6698C76.4287 2.54845 76.0661 2.62935 75.9452 2.83162C75.8244 3.03387 75.4215 3.19568 75.0186 3.19568C74.0919 3.19568 73.2459 3.39793 72.6012 3.80246C72.3192 3.96426 71.9566 4.00471 71.8357 3.88336C71.7149 3.76201 71.3523 3.84291 71.03 4.08562C70.7479 4.32832 70.5062 4.40923 70.5062 4.24742C70.5062 4.08562 70.2242 4.16652 69.9019 4.44968C69.5795 4.6924 69.1364 4.81375 68.8946 4.65195C68.6932 4.53058 68.4917 4.57104 68.4917 4.7733C68.4917 5.21826 64.1808 6.59363 63.6973 6.31046C63.4959 6.1891 63.2138 6.35092 63.093 6.71498C62.9721 7.03859 62.5289 7.28131 62.1663 7.20039C61.7634 7.11949 61.28 7.28131 61.0382 7.56447C60.8368 7.84763 60.2324 8.17125 59.7087 8.2926C59.1849 8.3735 58.1777 8.81847 57.4525 9.26344C56.7273 9.74886 56.0021 9.99158 55.8812 9.82976C55.72 9.7084 55.5992 9.78931 55.5992 10.0725C55.5992 10.3556 55.438 10.477 55.2366 10.3152C55.0351 10.1938 54.5919 10.3961 54.2293 10.7197C53.907 11.0838 52.6178 11.8119 51.3688 12.3782C50.1601 12.9445 49.0723 13.5918 48.9514 13.794C48.7903 13.9963 48.5485 14.0772 48.3471 13.9558C48.1859 13.8345 47.7831 14.0367 47.501 14.4008C46.937 15.1289 44.6808 16.3829 44.2376 16.2616C44.0361 16.2211 43.9153 16.3425 43.9153 16.5043C43.9153 16.7066 43.1095 17.4347 42.1023 18.1628C41.095 18.891 40.2892 19.3359 40.2892 19.1741C40.2892 19.0123 40.0475 19.1337 39.8058 19.4573C39.5238 19.8214 37.9122 21.1967 36.2603 22.5316C24.5764 31.9569 14.4235 45.7105 8.29957 60.3135C6.16424 65.4509 3.90805 72.3277 3.02168 76.4942C2.65908 78.1528 2.25619 79.7708 2.13532 80.0945C1.85329 80.8226 1.85329 80.8226 1.00722 87.1735C0.644615 89.7624 0.684904 107.602 1.00722 110.231C1.16838 111.323 1.32953 112.699 1.41011 113.265C1.4504 113.831 1.65185 114.6 1.813 114.964C1.97416 115.368 2.01445 115.975 1.89358 116.299C1.73243 116.622 1.813 116.986 2.05474 117.148C2.25619 117.27 2.41734 117.674 2.37705 118.038C2.33676 118.443 2.41734 119.009 2.53821 119.333C2.65908 119.656 3.30371 122.002 3.98862 124.51C7.89668 138.911 15.9142 153.838 25.3822 164.436C28.283 167.672 34.6085 173.821 34.8502 173.619C34.9308 173.538 35.374 174.023 35.8977 174.711C36.3812 175.399 36.9452 175.844 37.1064 175.722C37.3078 175.641 37.751 176.006 38.1136 176.572C38.4762 177.098 38.9194 177.462 39.1209 177.34C39.3223 177.219 39.6043 177.421 39.7252 177.745C39.8461 178.109 40.0878 178.311 40.249 178.19C40.4101 178.109 41.1353 178.554 41.8202 179.201C42.5454 179.848 43.1095 180.253 43.1095 180.091C43.1095 179.929 43.3915 180.172 43.7138 180.577C44.0361 181.022 44.3182 181.224 44.3182 180.981C44.3182 180.779 44.6002 180.981 44.9225 181.386C45.2448 181.831 45.5269 182.073 45.5269 181.911C45.5269 181.79 46.3729 182.195 47.4607 182.842C48.5083 183.489 50.0392 184.339 50.845 184.703C51.6911 185.067 52.376 185.471 52.376 185.674C52.376 185.997 55.6395 187.534 56.0826 187.413C56.2841 187.332 56.4049 187.494 56.4049 187.777C56.4049 188.02 56.5258 188.101 56.6467 187.979C56.8078 187.858 57.6942 188.182 58.6611 188.748C59.6281 189.314 60.4339 189.638 60.4339 189.436C60.4339 189.274 60.6756 189.395 60.9576 189.719C61.2397 190.083 61.7231 190.325 62.0454 190.325C62.3678 190.325 62.7707 190.447 62.8915 190.69C63.0527 190.892 63.7779 191.094 64.5031 191.134C65.2283 191.215 65.9132 191.458 65.9938 191.66C66.0744 191.903 66.3967 191.984 66.719 191.863C67.0413 191.741 67.2831 191.863 67.2831 192.105C67.2831 192.348 67.5651 192.429 67.8874 192.308C68.2097 192.146 68.4917 192.267 68.4917 192.51C68.4917 192.753 68.7335 192.833 69.0558 192.712C69.3781 192.591 69.7407 192.712 69.9019 192.914C70.0227 193.157 70.3047 193.278 70.5062 193.157C70.7076 193.036 70.9494 193.117 71.1105 193.319C71.2314 193.562 71.594 193.643 71.876 193.521C72.1983 193.4 72.5609 193.481 72.6818 193.723C72.843 193.966 73.2056 194.047 73.5279 193.885C73.8502 193.764 74.1322 193.885 74.1322 194.168C74.1322 194.452 74.4545 194.532 74.8977 194.371C75.3409 194.249 75.7841 194.33 75.905 194.532C76.0661 194.775 76.4287 194.856 76.7107 194.735C77.0331 194.613 77.3957 194.694 77.5165 194.937C77.6777 195.18 78.0403 195.261 78.3626 195.139C78.6849 195.018 79.1684 195.058 79.4504 195.261C79.7324 195.422 80.3368 195.625 80.78 195.665C82.1095 195.827 84.688 196.151 86.4205 196.393C88.5155 196.676 106.887 196.676 108.982 196.393C110.715 196.151 113.293 195.827 114.623 195.665C115.066 195.625 115.67 195.422 115.952 195.261C116.194 195.058 116.637 195.058 116.839 195.18C117.081 195.341 117.524 195.22 117.846 194.977C118.168 194.735 118.612 194.613 118.813 194.735C119.014 194.897 119.337 194.775 119.458 194.532C119.619 194.33 119.981 194.209 120.304 194.33C120.586 194.452 120.948 194.371 121.11 194.128C121.23 193.885 121.593 193.804 121.915 193.926C122.197 194.047 122.56 193.966 122.721 193.723C122.842 193.481 123.205 193.4 123.527 193.521C123.849 193.643 124.091 193.562 124.091 193.319C124.091 193.076 124.373 192.955 124.695 193.076C125.018 193.238 125.38 193.157 125.461 192.995C125.702 192.631 129.167 191.579 130.255 191.539C130.658 191.539 131.142 191.256 131.343 190.932C131.625 190.528 131.746 190.487 131.746 190.811C131.746 191.134 132.108 190.973 132.592 190.487C133.277 189.8 133.519 189.719 133.801 190.164C134.083 190.609 134.163 190.609 134.163 190.204C134.163 189.921 134.324 189.759 134.526 189.921C134.768 190.042 135.09 189.8 135.332 189.436C135.573 189.031 135.775 188.869 135.775 189.031C135.775 189.233 136.581 188.91 137.548 188.343C138.514 187.777 139.401 187.453 139.562 187.575C139.683 187.696 139.804 187.615 139.804 187.332C139.804 187.049 140.005 186.968 140.207 187.089C140.448 187.211 140.61 187.17 140.61 186.968C140.61 186.766 141.576 186.199 142.745 185.633C143.873 185.107 145.807 184.055 146.975 183.327C148.103 182.599 149.07 182.154 149.07 182.316C149.07 182.478 149.231 182.437 149.393 182.195C149.715 181.709 153.099 179.363 153.704 179.201C153.945 179.12 154.308 178.797 154.59 178.433C154.872 178.069 155.114 177.947 155.114 178.149C155.114 178.311 155.476 178.069 155.919 177.543C156.322 177.017 156.685 176.734 156.725 176.936C156.725 177.098 157.088 176.855 157.531 176.329C157.934 175.803 158.296 175.52 158.337 175.682C158.337 175.884 158.82 175.48 159.384 174.792C159.948 174.104 160.512 173.578 160.674 173.659C161.117 173.781 169.94 164.76 172.478 161.564C175.701 157.6 180.496 150.48 182.631 146.435C186.459 139.356 190.085 130.093 191.817 123.216C192.26 121.436 192.744 119.656 192.865 119.333C192.986 119.009 193.066 118.443 193.026 118.038C192.986 117.674 193.147 117.27 193.348 117.148C193.59 116.986 193.67 116.622 193.509 116.299C193.388 115.975 193.429 115.368 193.59 114.964C193.751 114.6 193.952 113.831 194.033 113.265C194.073 112.699 194.275 111.323 194.396 110.231C194.758 107.521 194.718 89.722 194.396 87.1735C193.55 80.863 193.55 80.8226 193.268 80.0945C193.147 79.7708 192.663 77.7482 192.18 75.6448C189.037 62.0934 181.543 46.9645 172.398 35.7593C169.739 32.4827 160.875 23.462 160.633 23.7452C160.512 23.8261 159.989 23.3407 159.384 22.653C158.82 21.9653 158.337 21.5203 158.337 21.7226C158.296 21.8844 157.974 21.6417 157.531 21.1158C157.128 20.5899 156.725 20.2259 156.645 20.3068C156.443 20.509 152.696 17.6774 152.696 17.3133C152.696 17.1111 152.535 17.0302 152.334 17.192C152.092 17.3133 151.77 17.0706 151.528 16.7066C151.286 16.302 151.085 16.0998 151.085 16.2616C151.085 16.4234 149.957 15.8166 148.587 14.9671C147.177 14.0772 145.283 13.0255 144.397 12.5805C143.47 12.176 142.584 11.6096 142.463 11.3669C142.302 11.1242 141.979 11.0029 141.778 11.1242C141.576 11.286 141.415 11.1647 141.415 10.922C141.415 10.6792 141.254 10.5983 141.012 10.7197C140.811 10.8411 140.61 10.7602 140.61 10.5174C140.61 10.2747 140.448 10.1938 140.207 10.3152C140.005 10.4365 139.804 10.3556 139.804 10.0725C139.804 9.78931 139.683 9.7084 139.522 9.82976C139.401 9.99158 138.676 9.74886 137.95 9.26344C137.225 8.81847 136.218 8.3735 135.694 8.2926C135.17 8.17125 134.606 7.84763 134.365 7.56447C134.163 7.28131 133.639 7.11949 133.237 7.20039C132.874 7.28131 132.431 7.03859 132.31 6.71498C132.189 6.35092 131.907 6.1891 131.706 6.31046C131.222 6.59363 126.911 5.21826 126.911 4.7733C126.911 4.57104 126.71 4.53058 126.508 4.65195C126.267 4.81375 125.823 4.6924 125.501 4.44968C125.179 4.16652 124.897 4.08562 124.897 4.24742C124.897 4.40923 124.655 4.32832 124.373 4.08562C124.051 3.84291 123.688 3.76201 123.567 3.88336C123.446 4.00471 123.084 3.96426 122.802 3.80246C122.157 3.39793 121.311 3.19568 120.384 3.19568C119.981 3.19568 119.579 3.03387 119.458 2.83162C119.337 2.62935 118.974 2.54845 118.692 2.6698C118.37 2.79117 118.007 2.71025 117.886 2.46754C117.725 2.22484 117.363 2.14394 117.04 2.26529C116.718 2.38664 116.235 2.34619 115.952 2.14394C115.67 1.98213 115.066 1.77986 114.623 1.73941C112.649 1.4967 110.473 1.21355 109.184 1.01129C107.29 0.687668 88.3543 0.40451 88.0723 0.687668ZM107.169 15.0076C109.063 15.2099 111.762 15.6953 113.213 15.9784C114.663 16.302 116.436 16.6661 117.161 16.7875C119.337 17.1515 126.871 19.7809 131.343 21.8035C135.815 23.8261 142.987 27.8712 144.236 29.1252C144.638 29.5298 145.082 29.7725 145.202 29.6511C145.323 29.5298 145.525 29.732 145.686 30.0961C145.807 30.4602 146.089 30.622 146.29 30.5006C146.492 30.3793 146.774 30.5815 146.895 30.9051C147.016 31.2692 147.298 31.4715 147.499 31.3501C147.66 31.2287 148.144 31.5928 148.506 32.1591C148.869 32.685 149.312 33.0895 149.473 32.9682C149.675 32.8468 150.077 33.13 150.4 33.5749C150.682 34.0199 151.044 34.2626 151.165 34.1817C151.286 34.0604 151.85 34.5053 152.414 35.193C153.019 35.8807 153.542 36.3661 153.663 36.3257C153.744 36.2448 154.791 37.2156 155.919 38.4292C157.088 39.6427 158.74 41.4226 159.626 42.353C161.117 43.9306 162.043 45.1037 163.574 47.3285C163.897 47.8139 164.582 48.7039 165.105 49.2702C166.798 51.2523 170.544 57.5628 172.881 62.4979C175.218 67.2712 178.361 76.0088 178.643 78.355C178.683 79.0427 178.884 79.7304 179.005 79.9326C179.126 80.1349 179.327 81.1057 179.489 82.117C179.65 83.1283 179.811 84.0183 179.892 84.1396C179.972 84.261 180.133 85.4341 180.294 86.769C180.415 88.1039 180.617 89.722 180.697 90.4096C180.939 92.0682 180.939 105.579 180.738 106.671C180.617 107.157 180.456 108.694 180.294 110.11C180.174 111.525 179.972 112.941 179.892 113.265C179.69 114.074 179.287 116.016 179.086 117.472C178.481 121.638 175.299 130.497 172.277 136.484C170.101 140.732 165.226 148.62 164.904 148.296C164.823 148.215 164.662 147.73 164.622 147.204C164.541 146.678 164.38 145.95 164.3 145.626C164.179 145.303 163.494 143.037 162.809 140.57C161.318 135.594 158.417 129.162 156.081 125.724C154.308 123.176 150.239 118.766 149.272 118.402C148.949 118.24 148.667 117.957 148.667 117.715C148.667 117.512 148.466 117.31 148.264 117.31C148.023 117.31 147.177 116.865 146.331 116.38C143.712 114.721 139.804 113.427 136.178 113.063C135.412 112.982 134.083 112.82 133.237 112.658C131.867 112.456 131.585 112.577 130.497 113.872C129.812 114.64 129.087 115.287 128.926 115.287C128.764 115.287 127.918 115.935 127.072 116.703C126.267 117.472 125.501 118.038 125.42 117.957C125.3 117.876 124.776 118.24 124.212 118.766C123.648 119.292 123.084 119.656 122.963 119.575C122.882 119.454 122.439 119.737 121.956 120.142C121.512 120.587 120.989 120.829 120.787 120.708C120.626 120.587 120.465 120.708 120.465 120.951C120.465 121.193 120.304 121.274 120.062 121.153C119.861 121.032 119.659 121.113 119.659 121.355C119.659 121.598 119.498 121.679 119.256 121.557C119.055 121.436 118.853 121.477 118.853 121.719C118.853 122.245 113.011 124.43 108.781 125.522C105.88 126.25 104.228 126.412 97.7014 126.412C91.1746 126.412 89.5227 126.25 86.6219 125.522C82.3915 124.43 76.5496 122.245 76.5496 121.719C76.5496 121.477 76.3884 121.436 76.1467 121.557C75.9452 121.679 75.7438 121.598 75.7438 121.355C75.7438 121.113 75.5424 121.032 75.3409 121.153C75.0992 121.274 74.938 121.193 74.938 120.951C74.938 120.708 74.7769 120.587 74.6157 120.708C74.4143 120.829 73.8905 120.587 73.4473 120.142C72.9638 119.737 72.5207 119.454 72.4401 119.575C72.3192 119.656 71.7552 119.292 71.1911 118.766C70.6271 118.24 70.1033 117.876 69.9824 117.957C69.9019 118.038 69.1364 117.472 68.3306 116.703C67.4845 115.935 66.6384 115.287 66.4773 115.287C66.3161 115.287 65.5909 114.64 64.906 113.872C63.9793 112.82 63.4153 112.496 62.7707 112.618C62.2469 112.739 60.9576 112.941 59.8295 113.022C58.7417 113.144 57.251 113.305 56.6064 113.427C55.0754 113.669 50.7645 115.247 49.9587 115.854C49.6364 116.137 48.8306 116.582 48.1457 116.906C47.501 117.229 46.6952 117.836 46.4132 118.2C46.1312 118.605 45.7283 118.928 45.5269 118.928C44.9628 118.928 41.0547 123.216 39.3223 125.764C37.1064 128.96 34.4876 134.623 32.9969 139.356C32.312 141.581 31.6271 143.685 31.5062 144.008C31.3853 144.332 31.2645 144.777 31.2242 145.02C31.1839 145.222 31.1033 145.505 31.063 145.626C31.0227 145.748 30.9018 146.354 30.8213 147.002C30.7407 147.608 30.5795 148.215 30.499 148.296C30.1766 148.62 25.3016 140.732 23.126 136.484C20.1043 130.497 16.9215 121.638 16.3171 117.472C16.2366 116.825 16.0351 115.854 15.9142 115.287C15.5114 113.346 15.3502 112.294 15.1085 109.907C14.9473 108.613 14.7861 107.157 14.6653 106.671C14.4638 105.539 14.4638 92.0682 14.7056 90.4096C14.7861 89.722 14.9876 88.1039 15.1085 86.769C15.2696 85.4341 15.4308 84.261 15.5114 84.1396C15.5919 84.0183 15.7531 83.1283 15.9142 82.117C16.0754 81.1057 16.2768 80.1349 16.3977 79.9326C16.5186 79.7304 16.72 79.0427 16.7603 78.355C17.0423 76.0088 20.1849 67.2712 22.5217 62.4979C24.8585 57.5628 28.6054 51.2523 30.2975 49.2702C30.8213 48.7039 31.5062 47.8139 31.8285 47.3285C33.3595 45.1037 34.2861 43.9306 35.7768 42.353C36.6632 41.4226 38.2345 39.7236 39.3223 38.5505C40.4101 37.4179 41.3771 36.5279 41.5382 36.6493C41.6994 36.7302 42.3037 36.1638 42.9081 35.3953C43.4721 34.5862 44.1167 34.0604 44.3182 34.1817C44.4793 34.3031 44.9225 33.8986 45.3254 33.3322C45.688 32.7659 46.0909 32.4018 46.2118 32.5232C46.3326 32.6445 46.7758 32.3209 47.1787 31.8355C47.5816 31.3501 47.9039 31.1074 47.9442 31.3096C47.9442 31.4715 48.3068 31.2287 48.75 30.7029C49.1529 30.177 49.5155 29.8534 49.5558 30.0152C49.5558 30.177 49.999 29.8938 50.5227 29.4084C52.0134 28.0331 59.8698 23.6238 64.5031 21.6012C68.8946 19.6191 76.0661 17.1515 78.282 16.7875C79.0072 16.6661 80.78 16.302 82.2707 15.9784C83.7614 15.6548 86.219 15.2099 87.7097 15.0076C91.6581 14.5222 103.181 14.4817 107.169 15.0076Z" fill="black"/>
<path d="M89.9659 36.1639C81.9886 37.701 75.0589 41.3821 68.8543 47.4094C65.7923 50.322 62.1663 55.1762 60.4339 58.6146C58.5806 62.2957 56.3646 69.3343 56.3646 71.5996C56.3646 71.9232 56.2035 73.4199 55.9617 74.9166C55.6797 77.0201 55.7603 78.7191 56.4049 82.8047C56.8078 85.6363 57.4525 88.832 57.7345 89.8838C58.0568 90.9355 58.2179 91.8659 58.0971 91.9873C57.9762 92.1491 58.0568 92.23 58.2985 92.23C58.5 92.23 58.9029 92.9177 59.1446 93.7267C59.7087 95.5875 63.0124 101.291 64.7448 103.395C66.6384 105.741 70.5465 109.705 72.0775 110.838C72.8027 111.404 73.6487 112.092 73.971 112.375C75.0589 113.427 82.9153 117.27 85.252 117.917C86.5816 118.281 87.9111 118.685 88.2334 118.807C90.8925 119.778 104.51 119.778 107.169 118.807C107.492 118.685 108.821 118.281 110.151 117.917C112.488 117.27 120.344 113.427 121.432 112.375C121.754 112.092 122.6 111.404 123.325 110.838C124.856 109.705 128.724 105.741 130.658 103.395C132.793 100.846 135.896 95.0616 137.104 91.5019C138.756 86.5667 139.884 78.3146 139.441 74.9166C139.199 73.4199 139.038 71.9232 139.038 71.5996C139.038 70.386 137.789 65.5723 136.863 63.0238C135.614 59.7877 134.486 57.5224 132.592 54.6503C130.457 51.3333 130.215 51.0906 126.79 47.6522C121.351 42.2721 115.106 38.6314 108.056 36.7706C103.987 35.6784 94.156 35.3548 89.9659 36.1639Z" fill="black"/>
</g>
<defs>
<clipPath id="clip0_4_71">
<rect width="195" height="197" fill="white"/>
</clipPath>
</defs>
</svg>
