<svg width="72" height="73" viewBox="0 0 72 73" fill="none" xmlns="http://www.w3.org/2000/svg">
<g clip-path="url(#clip0_6_256)">
<path d="M35.5765 36.7536C27.9517 36.7536 21.8094 30.526 21.8094 22.7953C21.8094 15.0646 27.9517 8.83705 35.5765 8.83705C43.2013 8.83705 49.3435 15.0646 49.3435 22.7953C49.3435 30.526 43.2013 36.7536 35.5765 36.7536ZM35.5765 13.1319C30.2815 13.1319 26.0455 17.4267 26.0455 22.7953C26.0455 28.1639 30.2815 32.4587 35.5765 32.4587C40.8715 32.4587 45.1075 28.1639 45.1075 22.7953C45.1075 17.4267 40.8715 13.1319 35.5765 13.1319Z" fill="black"/>
<path d="M16.9376 53.7182V62.9873C16.9376 64.0515 12.702 64.0515 12.702 62.9873V53.7182C12.702 45.2357 22.9741 38.6866 36.0001 38.6866C49.0261 38.6866 59.2982 45.2357 59.2982 53.7182V62.9873C59.2982 64.0515 55.0626 64.0515 55.0626 62.9873V53.7182C55.0626 47.9203 46.3782 42.981 36.0001 42.981C25.622 42.981 16.9376 47.9203 16.9376 53.7182Z" fill="black"/>
</g>
<defs>
<clipPath id="clip0_6_256">
<rect width="72" height="73" fill="white"/>
</clipPath>
</defs>
</svg>
